<?xml version="1.0" standalone="no"?>
<!DOCTYPE svg PUBLIC "-//W3C//DTD SVG 1.1//EN" "http://www.w3.org/Graphics/SVG/1.1/DTD/svg11.dtd" >
<svg xmlns="http://www.w3.org/2000/svg">
<metadata>
This is a custom SVG webfont generated by Font Squirrel.
Copyright   : c Copyright 19992005 BitstreamGalapagos Design Group All rights reserved
Foundry     : BitstreamGalapagos Design Group
</metadata>
<defs>
<font id="FuturaHvRegular" horiz-adv-x="1184" >
<font-face units-per-em="2048" ascent="1556" descent="-492" />
<missing-glyph horiz-adv-x="592" />
<glyph unicode=" "  horiz-adv-x="592" />
<glyph unicode="&#x09;" horiz-adv-x="592" />
<glyph unicode="&#xa0;" horiz-adv-x="592" />
<glyph unicode="!" horiz-adv-x="666" d="M162 139q0 71 50 120.5t122 49.5q71 0 120.5 -49t49.5 -121q0 -71 -49.5 -121.5t-120.5 -50.5t-121.5 51t-50.5 121zM190 477v1067h285v-1067h-285z" />
<glyph unicode="&#x22;" horiz-adv-x="999" d="M180 985v559h193v-559h-193zM629 985v559h192v-559h-192z" />
<glyph unicode="#" d="M2 416l41 200h180l56 312h-197l39 200h194l74 416h221l-71 -416h241l74 416h221l-74 -416h181l-39 -200h-178l-54 -312h189l-37 -200h-189l-73 -416h-221l73 416h-243l-76 -416h-219l71 416h-184zM440 616h252l56 312h-250z" />
<glyph unicode="$" d="M72 229l180 181q39 -74 108 -114t160 -40v403q-212 90 -313 205.5t-101 270.5q0 164 122 278.5t323 130.5v146h94v-145q108 -4 197.5 -53.5t165.5 -145.5l-185 -168q-34 56 -75.5 84t-102.5 36v-380q201 -82 306.5 -202t105.5 -267q0 -181 -121 -306t-320 -143v-205h-96 v205q-154 4 -270.5 64t-177.5 165zM397 1139q0 -57 40.5 -106.5t113.5 -80.5v346q-63 -8 -108.5 -55.5t-45.5 -103.5zM616 256q79 22 114.5 64t35.5 112q0 59 -38.5 107t-111.5 79v-362z" />
<glyph unicode="%" horiz-adv-x="1581" d="M61 1214q0 150 105 256.5t252 106.5q146 0 251 -106.5t105 -256.5q0 -149 -105 -256.5t-251 -107.5q-147 0 -252 107.5t-105 256.5zM242 0l950 1544h149l-950 -1544h-149zM258 1214q0 -75 47 -127.5t115 -52.5q67 0 112.5 52.5t45.5 127.5q0 76 -45.5 127.5t-112.5 51.5 q-68 0 -115 -52t-47 -127zM807 332q0 150 105 256t251 106q147 0 252 -106t105 -256t-105 -257.5t-252 -107.5q-146 0 -251 107.5t-105 257.5zM1004 332q0 -75 46.5 -127.5t114.5 -52.5t113 52t45 128q0 75 -45 126.5t-113 51.5t-114.5 -52t-46.5 -126z" />
<glyph unicode="&#x26;" horiz-adv-x="1438" d="M82 412q0 134 72.5 242.5t244.5 215.5l-12 15q-83 103 -112 169.5t-29 153.5q0 163 112.5 266t294.5 103q178 0 289 -98t111 -250q0 -117 -62 -214.5t-207 -197.5l228 -285q37 46 76 98.5t83 117.5l207 -162q-48 -66 -100 -130.5t-104 -123.5l264 -332h-342l-115 143 q-108 -88 -210 -132t-200 -44q-224 0 -356.5 121t-132.5 324zM383 432q0 -88 55.5 -148.5t139.5 -60.5q54 0 115 29t130 88l-266 334q-96 -66 -135 -122t-39 -120zM512 1219q0 -35 21.5 -75.5t74.5 -107.5l23 -26q83 55 119 103t36 101q0 64 -40 106t-97 42 q-64 0 -100.5 -39t-36.5 -104z" />
<glyph unicode="'" horiz-adv-x="606" d="M207 985v559h192v-559h-192z" />
<glyph unicode="(" horiz-adv-x="555" d="M82 561q0 290 60 549t175 467l222 -96q-90 -180 -140.5 -421t-50.5 -499q0 -259 50.5 -503t140.5 -423l-222 -96q-114 207 -174.5 469t-60.5 553z" />
<glyph unicode=")" horiz-adv-x="555" d="M16 -365q90 179 140.5 423t50.5 503q0 258 -50.5 499t-140.5 421l222 96q115 -208 175 -467t60 -549q0 -291 -60.5 -553t-174.5 -469z" />
<glyph unicode="*" horiz-adv-x="854" d="M41 1014l254 131l-254 129l80 141l239 -155l-14 284h162l-14 -284l239 155l80 -141l-252 -129l252 -131l-80 -140l-239 154l14 -285h-162l14 285l-239 -154z" />
<glyph unicode="+" d="M55 461v205h432v458h209v-458h434v-205h-434v-461h-209v461h-432z" />
<glyph unicode="," horiz-adv-x="592" d="M8 -338l172 635h307l-288 -635h-191z" />
<glyph unicode="-" horiz-adv-x="676" d="M59 383v266h559v-266h-559z" />
<glyph unicode="." horiz-adv-x="592" d="M127 137q0 72 50.5 122t121.5 50t121.5 -50t50.5 -122q0 -71 -50 -120.5t-122 -49.5q-71 0 -121.5 50t-50.5 120z" />
<glyph unicode="/" horiz-adv-x="1104" d="M29 -227l827 1943l178 -80l-827 -1943z" />
<glyph unicode="0" d="M41 774q0 363 149.5 583t399.5 220q252 0 402.5 -218t150.5 -585q0 -364 -151.5 -585.5t-401.5 -221.5q-251 0 -400 220t-149 587zM336 772q0 -239 70.5 -391t183.5 -152q116 0 187 151t71 396q0 240 -71.5 389.5t-186.5 149.5q-114 0 -184 -150.5t-70 -392.5z" />
<glyph unicode="1" d="M219 1282l123 262h465v-1544h-295v1282h-293z" />
<glyph unicode="2" d="M63 0l510 721q102 144 140.5 233t38.5 172q0 88 -50 136.5t-139 48.5q-88 0 -138 -64t-50 -170h-291q0 244 122 372t357 128t362.5 -112t127.5 -312q0 -145 -69 -289.5t-275 -423.5l-129 -174h493v-266h-1010z" />
<glyph unicode="3" d="M63 422h285q0 -88 58 -138.5t155 -50.5q110 0 167.5 55.5t57.5 162.5q0 115 -61.5 174t-181.5 59h-39v266h35q108 0 162.5 47.5t54.5 143.5q0 82 -48 131t-128 49q-86 0 -134 -39.5t-57 -115.5l-274 -1q11 199 133.5 305.5t341.5 106.5q211 0 334 -111.5t123 -302.5 q0 -129 -67.5 -220.5t-178.5 -113.5q128 -29 204 -137.5t76 -261.5q0 -213 -141 -338t-385 -125q-225 0 -358.5 122t-133.5 333z" />
<glyph unicode="4" d="M6 301v135l705 1108h268v-1018h154v-225h-154v-301h-287v301h-686zM287 526h405v654z" />
<glyph unicode="5" d="M66 86l63 246q113 -76 178 -97.5t146 -21.5q152 0 237.5 79.5t85.5 217.5q0 129 -84.5 211t-220.5 82q-71 0 -139 -24.5t-133 -73.5l-70 43l141 796h756v-266h-545l-49 -260q33 11 66 15.5t84 4.5q223 0 356 -145.5t133 -382.5q0 -258 -155.5 -400.5t-442.5 -142.5 q-119 0 -216 28t-191 91z" />
<glyph unicode="6" d="M72 479q0 123 53 263t180 343l287 459h338l-393 -589q9 6 32.5 11t44.5 5q229 0 364.5 -134t135.5 -358q0 -217 -147.5 -364.5t-372.5 -147.5t-373.5 146t-148.5 366zM362 479q0 -110 65 -180t167 -70q101 0 165 70.5t64 179.5q0 106 -63.5 174t-165.5 68 q-105 0 -168.5 -65t-63.5 -177z" />
<glyph unicode="7" d="M70 1278v266h1044v-71l-616 -1473h-334l565 1278h-659z" />
<glyph unicode="8" d="M63 428q0 149 72.5 255.5t202.5 147.5q-114 50 -167.5 132t-53.5 204q0 184 130.5 297t346.5 113q219 0 347 -114t128 -306q0 -114 -57 -198.5t-164 -127.5q128 -41 200 -145.5t72 -249.5q0 -217 -140 -343t-386 -126q-244 0 -387.5 125.5t-143.5 335.5zM362 457 q0 -106 63 -170t169 -64q105 0 166 63.5t61 170.5q0 109 -60.5 171t-166.5 62q-105 0 -168.5 -64t-63.5 -169zM408 1137q0 -86 50 -138.5t134 -52.5q86 0 135 51t49 138q0 85 -48.5 135.5t-131.5 50.5q-84 0 -136 -51.5t-52 -132.5z" />
<glyph unicode="9" d="M72 1065q0 218 147.5 365t372.5 147t373.5 -146t148.5 -366q0 -121 -53 -260t-182 -346l-285 -459h-338l393 590q-10 -7 -33 -12t-45 -5q-228 0 -363.5 134.5t-135.5 357.5zM362 1065q0 -106 64 -174t166 -68q104 0 167.5 65t63.5 177q0 110 -64.5 180t-166.5 70 q-101 0 -165.5 -70t-64.5 -180z" />
<glyph unicode=":" horiz-adv-x="592" d="M127 137q0 72 50.5 122t121.5 50t121.5 -50t50.5 -122q0 -71 -50 -120.5t-122 -49.5q-71 0 -121.5 50t-50.5 120zM127 866q0 72 50.5 122t121.5 50t121.5 -50t50.5 -122q0 -71 -50 -120.5t-122 -49.5q-71 0 -121.5 50t-50.5 120z" />
<glyph unicode=";" horiz-adv-x="592" d="M8 -338l172 635h307l-288 -635h-191zM154 866q0 72 50 122t122 50q71 0 121.5 -50t50.5 -122q0 -71 -50 -120.5t-122 -49.5t-122 50t-50 120z" />
<glyph unicode="&#x3c;" d="M55 461v198l1075 441v-226l-778 -315l778 -315v-226z" />
<glyph unicode="=" d="M55 246v205h1075v-205h-1075zM55 676v205h1075v-205h-1075z" />
<glyph unicode="&#x3e;" d="M51 18v226l780 315l-780 315v226l1077 -441v-198z" />
<glyph unicode="?" horiz-adv-x="997" d="M49 1114q0 219 120.5 341t340.5 122q201 0 319.5 -123t118.5 -328q0 -157 -81.5 -258t-235.5 -133v-258h-285v445h109q96 0 147 55t51 160q0 79 -44 126.5t-115 47.5q-81 0 -121.5 -49.5t-40.5 -147.5h-283zM317 139q0 71 50.5 120.5t121.5 49.5q72 0 121 -49t49 -121 q0 -71 -49 -121.5t-121 -50.5q-71 0 -121.5 51t-50.5 121z" />
<glyph unicode="@" horiz-adv-x="1997" d="M63 616q0 424 287.5 692.5t739.5 268.5q365 0 604 -199t239 -518q0 -277 -151.5 -467t-405.5 -190q-111 0 -172.5 43.5t-62.5 121.5q-55 -83 -127.5 -123t-169.5 -40q-157 0 -240.5 87.5t-83.5 252.5q0 239 139.5 401t344.5 162q80 0 139 -33t96 -98l53 98h178l-143 -582 q-3 -12 -4.5 -22.5t-1.5 -17.5q0 -53 12.5 -68.5t50.5 -15.5q155 0 250 134.5t95 360.5q0 250 -175.5 399.5t-470.5 149.5q-377 0 -596 -212.5t-219 -582.5q0 -307 197 -482t543 -175q158 0 313 50t291 145l82 -138q-154 -115 -325 -173t-357 -58q-432 0 -690.5 222.5 t-258.5 606.5zM739 541q0 -88 38.5 -130t119.5 -42t156.5 73.5t99.5 178.5l37 155q-12 82 -57 125t-117 43q-116 0 -196.5 -116t-80.5 -287z" />
<glyph unicode="A" horiz-adv-x="1384" d="M-10 0l524 1544h358l523 -1544h-336l-101 342h-530l-102 -342h-336zM498 588h389l-195 657z" />
<glyph unicode="B" horiz-adv-x="1133" d="M123 0v1544h323q274 0 403.5 -99t129.5 -308q0 -126 -66.5 -207t-183.5 -103q141 -13 241.5 -117.5t100.5 -248.5q0 -226 -148 -343.5t-436 -117.5h-364zM430 256h78q125 0 187.5 55t62.5 166q0 102 -64.5 156.5t-185.5 54.5h-78v-432zM430 934h16q118 0 180 46.5 t62 133.5q0 94 -56.5 134t-185.5 40h-16v-354z" />
<glyph unicode="C" horiz-adv-x="1231" d="M41 774q0 352 207.5 577.5t548.5 225.5q127 0 220 -24t173 -78v-334q-79 70 -174 107.5t-191 37.5q-214 0 -342.5 -140t-128.5 -372q0 -238 117.5 -377t323.5 -139q123 0 219 41t176 127v-342q-62 -46 -182 -81.5t-217 -35.5q-348 0 -549 218.5t-201 588.5z" />
<glyph unicode="D" horiz-adv-x="1323" d="M102 0v1544h308q412 0 632 -198.5t220 -575.5q0 -366 -218 -568t-610 -202h-332zM403 266h74q222 0 346.5 132.5t124.5 373.5q0 239 -124 372.5t-347 133.5h-74v-1012z" />
<glyph unicode="E" horiz-adv-x="999" d="M123 0v1544h774v-266h-467v-360h467v-267h-467v-385h467v-266h-774z" />
<glyph unicode="F" horiz-adv-x="948" d="M133 0v1544h754v-266h-453v-360h453v-267h-453v-651h-301z" />
<glyph unicode="G" horiz-adv-x="1513" d="M41 772q0 349 209 577t528 228q190 0 349.5 -84.5t250.5 -232.5l-231 -170q-60 96 -151 143t-218 47q-195 0 -310.5 -139.5t-115.5 -368.5t115.5 -368.5t310.5 -139.5q136 0 225 70.5t136 214.5h-361v266h705v-43q0 -355 -195.5 -580t-509.5 -225q-319 0 -528 228 t-209 577z" />
<glyph unicode="H" horiz-adv-x="1380" d="M123 0v1544h301v-626h532v626h301v-1544h-301v651h-532v-651h-301z" />
<glyph unicode="I" horiz-adv-x="520" d="M111 0v1544h301v-1544h-301z" />
<glyph unicode="J" horiz-adv-x="797" d="M-10 291l258 92q0 -76 15.5 -107.5t51.5 -31.5q43 0 55.5 52.5t12.5 184.5v1063h301v-1059q0 -301 -81 -409.5t-290 -108.5q-150 0 -231 81.5t-92 242.5z" />
<glyph unicode="K" horiz-adv-x="1270" d="M123 0v1544h301v-702l512 702h350l-549 -706l568 -838h-365l-516 807v-807h-301z" />
<glyph unicode="L" horiz-adv-x="823" d="M123 0v1544h301v-1278h379v-266h-680z" />
<glyph unicode="M" horiz-adv-x="1712" d="M16 0l213 1544h369l258 -936l279 936h348l213 -1544h-297l-142 1133l-313 -1133h-176l-313 1133l-142 -1133h-297z" />
<glyph unicode="N" horiz-adv-x="1554" d="M123 0v1544h295l719 -1038v1038h295v-1544h-295l-719 1042v-1042h-295z" />
<glyph unicode="O" horiz-adv-x="1602" d="M41 772q0 345 218.5 575t541.5 230t541.5 -230t218.5 -575t-218.5 -575t-541.5 -230t-541.5 230t-218.5 575zM352 772q0 -224 124.5 -366t324.5 -142q199 0 323.5 142t124.5 366t-124.5 366t-323.5 142q-200 0 -324.5 -142t-124.5 -366z" />
<glyph unicode="P" horiz-adv-x="1081" d="M123 0v1544h344q273 0 418 -121.5t145 -349.5q0 -216 -152 -344.5t-411 -128.5h-43v-600h-301zM424 846h51q129 0 186.5 53.5t57.5 173.5q0 110 -62 167.5t-182 57.5h-51v-452z" />
<glyph unicode="Q" horiz-adv-x="1602" d="M41 772q0 345 218.5 575t541.5 230t541.5 -230t218.5 -575q0 -181 -66.5 -339.5t-187.5 -270.5l215 -279l-199 -149l-223 295q-73 -31 -148 -46.5t-151 -15.5q-323 0 -541.5 230t-218.5 575zM352 772q0 -224 124.5 -366t324.5 -142q28 0 55 3t51 9l-166 207l254 84 l127 -164q62 70 94.5 164.5t32.5 204.5q0 224 -124.5 366t-323.5 142q-200 0 -324.5 -142t-124.5 -366z" />
<glyph unicode="R" horiz-adv-x="1143" d="M123 0v1544h416q261 0 396.5 -110t135.5 -320q0 -178 -90 -286t-236 -123l404 -705h-361l-364 705v-705h-301zM424 881h68q134 0 200 50.5t66 155.5q0 110 -65 160.5t-201 50.5h-68v-417z" />
<glyph unicode="S" horiz-adv-x="1077" d="M39 201l190 213q31 -80 111.5 -130.5t173.5 -50.5q95 0 144 44t49 129q0 74 -65.5 134t-231.5 152q-182 101 -257 205t-75 246q0 198 130.5 316t352.5 118q135 0 238 -50.5t172 -150.5l-185 -202q-29 59 -94 98t-135 39q-80 0 -127 -41.5t-47 -102.5q0 -123 219 -241 q40 -21 62 -33q192 -107 273 -213t81 -254q0 -221 -130 -340t-374 -119q-169 0 -294 61.5t-181 172.5z" />
<glyph unicode="T" horiz-adv-x="924" d="M20 1278v266h883v-266h-291v-1278h-301v1278h-291z" />
<glyph unicode="U" horiz-adv-x="1352" d="M113 600v944h311v-997q0 -149 64.5 -226t187.5 -77q128 0 190 75t62 228v997h311v-944q0 -307 -145.5 -470t-417.5 -163q-268 0 -415.5 167.5t-147.5 465.5z" />
<glyph unicode="V" horiz-adv-x="1309" d="M-10 1544h346l319 -1147l320 1147h346l-502 -1544h-327z" />
<glyph unicode="W" horiz-adv-x="2001" d="M-10 1544h327l267 -1065l274 1065h285l274 -1065l266 1065h328l-440 -1544h-297l-273 1110l-274 -1110h-297z" />
<glyph unicode="X" horiz-adv-x="1276" d="M4 0l457 809l-445 735h355l272 -502l262 502h352l-440 -735l455 -809h-357l-278 545l-279 -545h-354z" />
<glyph unicode="Y" horiz-adv-x="1202" d="M-10 1544h344l272 -583l264 583h342l-460 -860v-684h-301v684z" />
<glyph unicode="Z" horiz-adv-x="1178" d="M-10 0l702 1278h-624v266h1089l-698 -1278h678v-266h-1147z" />
<glyph unicode="[" horiz-adv-x="590" d="M100 -440v1984h451v-235h-195v-1514h195v-235h-451z" />
<glyph unicode="\" horiz-adv-x="1104" d="M70 1636l178 80l827 -1943l-178 -80z" />
<glyph unicode="]" horiz-adv-x="590" d="M39 -205h194v1514h-194v235h450v-1984h-450v235z" />
<glyph unicode="^" d="M96 866l400 678h192l399 -678h-229l-266 402l-266 -402h-230z" />
<glyph unicode="_" horiz-adv-x="1024" d="M0 -229h1024v-213h-1024v213z" />
<glyph unicode="`" horiz-adv-x="778" d="M111 1313l114 176l346 -262l-73 -117z" />
<glyph unicode="a" horiz-adv-x="1157" d="M37 502q0 235 127 385.5t334 150.5q95 0 166 -38.5t104 -108.5v115h287v-1006h-287v115q-44 -73 -112.5 -110.5t-157.5 -37.5q-207 0 -334 150t-127 385zM328 502q0 -120 62 -200.5t157 -80.5t158 81t63 200t-63.5 200.5t-157.5 81.5t-156.5 -81t-62.5 -201z" />
<glyph unicode="b" horiz-adv-x="1157" d="M102 0v1690h287v-799q44 72 112.5 109.5t157.5 37.5q207 0 334 -149.5t127 -384.5t-127 -386t-334 -151q-95 0 -166 39t-104 109v-115h-287zM389 504q0 -120 63.5 -201.5t157.5 -81.5t156.5 81.5t62.5 201.5q0 119 -62 199.5t-157 80.5t-158 -80.5t-63 -199.5z" />
<glyph unicode="c" horiz-adv-x="862" d="M37 502q0 239 151.5 387.5t401.5 148.5q73 0 127.5 -14t113.5 -47v-287q-39 42 -101 68t-122 26q-121 0 -200.5 -80t-79.5 -200q0 -130 75.5 -206.5t204.5 -76.5q64 0 123.5 26t99.5 72v-286q-61 -37 -115 -51.5t-126 -14.5q-252 0 -402.5 146t-150.5 389z" />
<glyph unicode="d" horiz-adv-x="1157" d="M37 502q0 235 127 385.5t334 150.5q95 0 166 -38.5t104 -108.5v799h287v-1690h-287v115q-44 -73 -112.5 -110.5t-157.5 -37.5q-207 0 -334 150t-127 385zM328 502q0 -120 62 -200.5t157 -80.5t158 81t63 200t-63.5 200.5t-157.5 81.5t-156.5 -81t-62.5 -201z" />
<glyph unicode="e" horiz-adv-x="1026" d="M25 504q0 226 141 380t348 154q215 0 351 -151t136 -383q0 -37 -0.5 -55t-3.5 -33h-690q21 -96 82 -155.5t139 -59.5q67 0 121.5 34t81.5 93l230 -115q-60 -119 -173 -182.5t-268 -63.5q-224 0 -359.5 147.5t-135.5 389.5zM307 592h410q-19 99 -73.5 156t-131.5 57 t-132 -58t-73 -155z" />
<glyph unicode="f" horiz-adv-x="621" d="M25 770v236h127v301q0 205 90 307t272 102q24 0 53.5 -3t53.5 -9v-252q-15 6 -28.5 8t-35.5 2q-64 0 -91.5 -41.5t-27.5 -134.5v-280h183v-236h-183v-770h-286v770h-127z" />
<glyph unicode="g" horiz-adv-x="1151" d="M37 502q0 235 127 385.5t334 150.5q95 0 166 -38.5t104 -108.5v115h287v-1059q0 -262 -117 -381t-373 -119q-235 0 -366 98t-131 267h292q0 -54 57 -86.5t148 -32.5q111 0 157 56.5t46 191.5v174q-44 -73 -112.5 -110.5t-157.5 -37.5q-207 0 -334 150t-127 385zM328 502 q0 -120 62 -200.5t157 -80.5t158 81t63 200t-63.5 200.5t-157.5 81.5t-156.5 -81t-62.5 -201z" />
<glyph unicode="h" horiz-adv-x="1106" d="M102 0v1690h287v-801q41 73 119.5 111t185.5 38q160 0 237 -96t77 -293v-649h-285v592q0 114 -34.5 165.5t-110.5 51.5q-83 0 -136 -78t-53 -215v-516h-287z" />
<glyph unicode="i" horiz-adv-x="518" d="M94 1411q0 69 48.5 117.5t117.5 48.5t117.5 -48.5t48.5 -117.5t-48.5 -117.5t-117.5 -48.5t-117.5 48.5t-48.5 117.5zM117 0v1006h286v-1006h-286z" />
<glyph unicode="j" horiz-adv-x="518" d="M94 1411q0 69 48.5 117.5t117.5 48.5t117.5 -48.5t48.5 -117.5t-48.5 -117.5t-117.5 -48.5t-117.5 48.5t-48.5 117.5zM117 -532v1538h286v-1538h-286z" />
<glyph unicode="k" horiz-adv-x="1077" d="M102 0v1690h287v-1131l318 447h342l-347 -447l367 -559h-352l-328 532v-532h-287z" />
<glyph unicode="l" horiz-adv-x="489" d="M102 0v1690h287v-1690h-287z" />
<glyph unicode="m" horiz-adv-x="1642" d="M102 0v1006h287v-117q43 76 113 112.5t172 36.5q101 0 167.5 -43t96.5 -129q44 79 129 125.5t184 46.5q154 0 223.5 -93t69.5 -296v-649h-284v592q0 125 -27.5 171t-97.5 46q-77 0 -122.5 -76.5t-45.5 -216.5v-516h-285v592q0 125 -27.5 171t-97.5 46q-77 0 -122.5 -76.5 t-45.5 -216.5v-516h-287z" />
<glyph unicode="n" horiz-adv-x="1106" d="M102 0v1006h287v-117q41 73 119.5 111t185.5 38q155 0 234.5 -103.5t79.5 -305.5v-629h-285v592q0 114 -34.5 165.5t-110.5 51.5q-83 0 -136 -78t-53 -215v-516h-287z" />
<glyph unicode="o" horiz-adv-x="1122" d="M37 504q0 231 149 382.5t377 151.5q225 0 373.5 -153.5t148.5 -380.5q0 -228 -148.5 -382.5t-373.5 -154.5q-226 0 -376 154t-150 383zM328 504q0 -125 65.5 -204t167.5 -79q107 0 170.5 78t63.5 205q0 120 -67.5 200t-166.5 80q-103 0 -168 -78.5t-65 -201.5z" />
<glyph unicode="p" horiz-adv-x="1157" d="M102 -532v1538h287v-115q44 72 112.5 109.5t157.5 37.5q207 0 334 -149.5t127 -384.5t-127 -386t-334 -151q-95 0 -166 39t-104 109v-647h-287zM389 504q0 -120 63.5 -201.5t157.5 -81.5q95 0 159.5 82t64.5 201q0 118 -64 199t-160 81q-95 0 -158 -80.5t-63 -199.5z" />
<glyph unicode="q" horiz-adv-x="1157" d="M37 502q0 235 127 385.5t334 150.5q95 0 166 -38.5t104 -108.5v115h287v-1538h-287v647q-44 -73 -112.5 -110.5t-157.5 -37.5q-207 0 -334 150t-127 385zM324 502q0 -119 64 -200t159 -81t158 81t63 200t-63.5 200.5t-157.5 81.5q-95 0 -159 -81.5t-64 -200.5z" />
<glyph unicode="r" horiz-adv-x="752" d="M102 0v1006h287v-211q40 135 104.5 189t190.5 54q21 0 46 -4.5t42 -11.5l-51 -297q-27 14 -50.5 20.5t-49.5 6.5q-118 0 -175 -77.5t-57 -238.5v-436h-287z" />
<glyph unicode="s" horiz-adv-x="840" d="M29 115l168 147q25 -37 77.5 -63.5t104.5 -26.5q60 0 94.5 25t34.5 67q0 47 -43 80t-141 70q-141 53 -201 124.5t-60 190.5q0 142 104.5 225.5t287.5 83.5q95 0 170 -29.5t127 -86.5l-134 -162q-41 41 -78 57.5t-85 16.5q-59 0 -92 -23.5t-33 -60.5q0 -53 42 -88t140 -68 q131 -43 200.5 -123t69.5 -186q0 -148 -107 -233t-296 -85q-116 0 -209 39.5t-141 108.5z" />
<glyph unicode="t" horiz-adv-x="561" d="M20 770v236h113v325h287v-325h141v-236h-141v-770h-287v770h-113z" />
<glyph unicode="u" horiz-adv-x="1096" d="M98 451v555h287v-586q0 -102 40 -150.5t124 -48.5q79 0 120.5 51t41.5 148v586h286v-555q0 -251 -108 -367.5t-340 -116.5q-242 0 -346.5 113t-104.5 371z" />
<glyph unicode="v" horiz-adv-x="999" d="M-10 1006h317l193 -641l192 641h318l-367 -1006h-285z" />
<glyph unicode="w" horiz-adv-x="1604" d="M-10 1006h317l182 -652l170 652h285l170 -652l182 652h318l-357 -1006h-284l-170 602l-170 -602h-285z" />
<glyph unicode="x" horiz-adv-x="1124" d="M-8 0l393 518l-367 488h353l198 -295l187 295h352l-371 -488l396 -518h-359l-217 311l-213 -311h-352z" />
<glyph unicode="y" horiz-adv-x="1065" d="M14 1006h318l209 -648l207 648h317l-563 -1538h-318l211 557z" />
<glyph unicode="z" horiz-adv-x="985" d="M0 0l481 764h-426v242h889l-475 -764h471v-242h-940z" />
<glyph unicode="{" horiz-adv-x="797" d="M113 434v236q98 0 127.5 22t29.5 115v397q0 199 79.5 269.5t334.5 70.5v-235q-98 0 -128 -22t-30 -116v-356q0 -96 -26 -160.5t-80 -101.5q54 -37 80 -102.5t26 -161.5v-357q0 -93 30 -115t128 -22v-235q-255 0 -334.5 70t-79.5 270v397q0 93 -29.5 115t-127.5 22z" />
<glyph unicode="|" horiz-adv-x="1102" d="M410 -504v2048h206v-2048h-206z" />
<glyph unicode="}" horiz-adv-x="797" d="M113 -205q98 0 127.5 22t29.5 115v357q0 96 26.5 161.5t80.5 102.5q-54 37 -80.5 101.5t-26.5 160.5v356q0 94 -29.5 116t-127.5 22v235q255 0 334 -70.5t79 -269.5v-397q0 -93 30 -115t128 -22v-236q-98 0 -128 -22t-30 -115v-397q0 -200 -79 -270t-334 -70v235z" />
<glyph unicode="~" d="M131 358v226q57 79 129 119t158 40q45 0 89.5 -15.5t84.5 -45.5q60 -44 104 -63t90 -19q71 0 126 38t141 142v-225q-57 -79 -129 -119.5t-158 -40.5q-46 0 -91 15.5t-83 44.5q-62 45 -106 64.5t-89 19.5q-71 0 -125.5 -38t-140.5 -143z" />
<glyph d="M10 551l49 143h117q-2 20 -2 40v40q0 22 1 43t3 41h-168l49 143h140q28 132 87 238.5t139.5 181.5t177.5 115.5t202 40.5q60 0 106 -5.5t84.5 -18t73.5 -32t74 -46.5v-295q-59 66 -143.5 100.5t-174.5 34.5q-55 0 -105.5 -20.5t-93 -60.5t-75.5 -98.5t-53 -134.5h579 l-49 -143h-555q-2 -20 -3 -41.5t-1 -44.5v-40q0 -19 2 -38h504l-49 -143h-432q18 -74 48 -133.5t71.5 -101.5t94.5 -64.5t117 -22.5q52 0 94.5 8.5t80 26.5t72.5 46t71 67v-293q-57 -56 -146 -86.5t-192 -30.5q-115 0 -215.5 40t-179.5 115t-134.5 183.5t-80.5 245.5h-185z " />
<glyph unicode="&#x20ac;" d="M10 551l49 143h117q-2 20 -2 40v40q0 22 1 43t3 41h-168l49 143h140q28 132 87 238.5t139.5 181.5t177.5 115.5t202 40.5q60 0 106 -5.5t84.5 -18t73.5 -32t74 -46.5v-295q-59 66 -143.5 100.5t-174.5 34.5q-55 0 -105.5 -20.5t-93 -60.5t-75.5 -98.5t-53 -134.5h579 l-49 -143h-555q-2 -20 -3 -41.5t-1 -44.5v-40q0 -19 2 -38h504l-49 -143h-432q18 -74 48 -133.5t71.5 -101.5t94.5 -64.5t117 -22.5q52 0 94.5 8.5t80 26.5t72.5 46t71 67v-293q-57 -56 -146 -86.5t-192 -30.5q-115 0 -215.5 40t-179.5 115t-134.5 183.5t-80.5 245.5h-185z " />
<glyph horiz-adv-x="1178" d="M-10 0l702 1278h-624v266h1089l-698 -1278h678v-266h-1147zM264 1903l74 117l252 -138l252 138l73 -117l-325 -254z" />
<glyph unicode="&#x17d;" horiz-adv-x="1178" d="M-10 0l702 1278h-624v266h1089l-698 -1278h678v-266h-1147zM264 1903l74 117l252 -138l252 138l73 -117l-325 -254z" />
<glyph horiz-adv-x="985" d="M0 0l481 764h-426v242h889l-475 -764h471v-242h-940zM168 1364l74 117l252 -138l252 138l73 -117l-325 -254z" />
<glyph unicode="&#x17e;" horiz-adv-x="985" d="M0 0l481 764h-426v242h889l-475 -764h471v-242h-940zM168 1364l74 117l252 -138l252 138l73 -117l-325 -254z" />
<glyph unicode="&#xa0;" />
<glyph unicode="&#x2007;" />
<glyph unicode="&#xa1;" horiz-adv-x="666" d="M162 1405q0 72 49.5 122t120.5 50t121.5 -51t50.5 -121q0 -71 -50.5 -120.5t-121.5 -49.5q-72 0 -121 49t-49 121zM190 0v1067h285v-1067h-285z" />
<glyph unicode="&#xa2;" d="M98 780q0 219 128.5 364t344.5 169v190h113v-186q58 -3 106.5 -17.5t102.5 -44.5v-286q-40 41 -101.5 67.5t-121.5 26.5q-133 0 -207 -75t-74 -206q0 -130 75.5 -206t205.5 -76q64 0 123 26t100 72v-287q-55 -32 -103.5 -47t-105.5 -19v-204h-113v209q-219 23 -346 165.5 t-127 364.5z" />
<glyph unicode="&#xa3;" d="M51 193q51 50 121.5 85t138.5 46q21 25 32 62.5t11 80.5q0 47 -12 96t-35 96h-244v144h170q-49 72 -72.5 151t-23.5 170q0 202 142 327.5t389 125.5q191 0 316 -87.5t167 -250.5l-264 -133q-8 100 -69.5 158.5t-160.5 58.5q-100 0 -162.5 -63t-62.5 -152q0 -73 22.5 -150 t65.5 -155h379v-144h-315q7 -18 12.5 -44.5t5.5 -45.5q0 -76 -27.5 -134t-91.5 -116q50 0 166.5 -53t179.5 -53q55 0 97.5 27t74.5 84l154 -183q-53 -85 -127 -129.5t-164 -44.5q-128 0 -278 60.5t-209 60.5q-56 0 -120.5 -33.5t-106.5 -87.5z" />
<glyph unicode="&#xa4;" d="M49 590l150 149q-47 63 -72 138.5t-25 156.5q0 82 25 157t72 138l-150 150l98 98l150 -150q63 47 138.5 72t156.5 25t156.5 -25t138.5 -72l149 150l99 -98l-150 -150q47 -63 71.5 -138t24.5 -157q0 -81 -24.5 -156.5t-71.5 -138.5l150 -149l-99 -98l-149 149 q-63 -47 -138.5 -71.5t-156.5 -24.5t-156.5 24.5t-138.5 71.5l-150 -149zM254 1034q0 -140 99 -239t239 -99t239 99t99 239t-99 239t-239 99t-239 -99t-99 -239z" />
<glyph unicode="&#xa5;" d="M-10 1544h344l264 -583l254 583h342l-268 -512h237v-143h-313l-96 -184h409v-144h-420v-561h-301v561h-422v144h412l-98 184h-314v143h240z" />
<glyph unicode="&#xa6;" horiz-adv-x="1102" d="M410 -371v758h206v-758h-206zM410 653v758h206v-758h-206z" />
<glyph unicode="&#xa7;" horiz-adv-x="1182" d="M111 555q0 122 61.5 225t153.5 129q-65 45 -96 119.5t-31 185.5q0 149 115.5 256t275.5 107q189 0 286 -99t97 -294h-262q0 66 -31.5 101.5t-89.5 35.5q-59 0 -94 -36t-35 -91q0 -69 43 -112.5t106 -43.5q211 0 336 -130.5t125 -344.5q0 -121 -65 -222.5t-150 -125.5 q63 -34 100 -113t37 -178q0 -149 -120.5 -261t-280.5 -112q-194 0 -299 101.5t-105 292.5h263q0 -63 39.5 -100.5t101.5 -37.5q59 0 99 41.5t40 96.5q0 68 -42.5 106.5t-117.5 38.5q-201 0 -330.5 129.5t-129.5 335.5zM373 555q0 -99 59 -154t158 -55q91 0 155 63.5 t64 153.5q0 101 -61 160t-156 59q-100 0 -159.5 -62.5t-59.5 -164.5z" />
<glyph unicode="&#xa8;" horiz-adv-x="819" d="M92 1278q0 51 39.5 90t91.5 39q54 0 91.5 -37.5t37.5 -91.5q0 -57 -36.5 -94t-92.5 -37q-55 0 -93 38t-38 93zM467 1278q0 51 39.5 90t91.5 39q54 0 91.5 -37.5t37.5 -91.5q0 -57 -36.5 -94t-92.5 -37q-55 0 -93 38t-38 93z" />
<glyph unicode="&#xa9;" horiz-adv-x="1638" d="M14 772q0 333 236 569t569 236q334 0 569.5 -236t235.5 -569t-235.5 -569t-569.5 -236q-333 0 -569 236t-236 569zM137 772q0 -283 200 -482.5t482 -199.5q283 0 482.5 199.5t199.5 482.5t-199.5 482.5t-482.5 199.5q-282 0 -482 -199.5t-200 -482.5zM358 786 q0 226 138 368t358 142q90 0 173 -28t147 -80v-242q-74 71 -154 108.5t-158 37.5q-142 0 -215.5 -77.5t-73.5 -228.5q0 -145 74 -227t205 -82q96 0 173 32t149 101v-237q-66 -48 -150.5 -74.5t-169.5 -26.5q-225 0 -360.5 141.5t-135.5 372.5z" />
<glyph unicode="&#xaa;" horiz-adv-x="694" d="M25 1251q0 144 73.5 229t196.5 85q41 0 76.5 -19t56.5 -53v51h195v-590h-195v56q-22 -32 -56.5 -49t-76.5 -17q-128 0 -199 81.5t-71 225.5zM219 1251q0 -57 29 -90t78 -33q47 0 74.5 32.5t27.5 90.5q0 59 -28 94t-74 35q-48 0 -77.5 -35t-29.5 -94z" />
<glyph unicode="&#xab;" horiz-adv-x="1053" d="M94 504l299 502l178 -109l-243 -393l243 -395l-178 -109zM504 504l299 502l178 -109l-244 -393l244 -395l-178 -109z" />
<glyph unicode="&#xac;" d="M55 686v205h1035v-666h-209v461h-826z" />
<glyph unicode="&#xad;" horiz-adv-x="676" d="M59 383v266h559v-266h-559z" />
<glyph unicode="&#xae;" horiz-adv-x="1638" d="M14 772q0 333 236 569t569 236q334 0 569.5 -236t235.5 -569t-235.5 -569t-569.5 -236q-333 0 -569 236t-236 569zM137 772q0 -283 200 -482.5t482 -199.5q283 0 482.5 199.5t199.5 482.5t-199.5 482.5t-482.5 199.5q-282 0 -482 -199.5t-200 -482.5zM553 293v983h258 q151 0 240.5 -76.5t89.5 -200.5q0 -90 -57 -155t-150 -80l272 -471h-215l-243 448v-448h-195zM748 895h57q65 0 98 27t33 79q0 64 -30.5 92.5t-100.5 28.5h-57v-227z" />
<glyph unicode="&#xaf;" horiz-adv-x="1024" d="M0 1360v205h1024v-205h-1024z" />
<glyph unicode="&#xb0;" horiz-adv-x="819" d="M106 1272q0 127 88.5 216t215.5 89q125 0 214 -89.5t89 -215.5q0 -125 -89.5 -214t-215.5 -89q-127 0 -214.5 87.5t-87.5 215.5zM233 1274q0 -74 51.5 -125t125.5 -51q72 0 123 52t51 124t-51 123t-123 51q-73 0 -125 -51t-52 -123z" />
<glyph unicode="&#xb1;" d="M55 0v205h1075v-205h-1075zM55 614v205h432v305h209v-305h434v-205h-434v-307h-209v307h-432z" />
<glyph unicode="&#xb2;" horiz-adv-x="709" d="M6 643l342 410q65 76 93 127t28 92q0 53 -31 80.5t-90 27.5q-57 0 -89 -37.5t-32 -101.5h-194q0 150 84 237t231 87q148 0 237 -78t89 -201q0 -85 -45.5 -169.5t-175.5 -227.5l-56 -62h277v-184h-668z" />
<glyph unicode="&#xb3;" horiz-adv-x="709" d="M29 911v7h190v-3q0 -52 31.5 -80t91.5 -28q48 0 79.5 29t31.5 71q0 54 -30.5 81.5t-90.5 27.5v174q59 0 88 24t29 72q0 44 -28 69t-77 25q-56 0 -86.5 -20.5t-30.5 -56.5h-184q7 121 87 191.5t216 70.5q146 0 223.5 -66.5t77.5 -187.5q0 -81 -41 -135t-102 -64 q80 -16 122 -71.5t42 -145.5q0 -127 -87 -199.5t-243 -72.5q-138 0 -223.5 82t-85.5 206z" />
<glyph unicode="&#xb4;" horiz-adv-x="778" d="M207 1227l346 262l115 -176l-387 -203z" />
<glyph unicode="&#xb5;" horiz-adv-x="1096" d="M-90 -532l268 1538h297l-69 -398q-13 -71 -20 -136t-7 -112q0 -69 19.5 -100t64.5 -31q70 0 121 77.5t78 228.5l83 471h297l-90 -515q-2 -14 -7 -41q-17 -104 -17 -133q0 -45 15 -66.5t48 -21.5q20 0 35 3t31 10l-43 -267q-3 0 -8 -1q-37 -7 -50 -7q-123 0 -187.5 39 t-92.5 133q-46 -92 -96 -132t-125 -40q-52 0 -93.5 35.5t-48.5 78.5l-106 -613h-297z" />
<glyph unicode="&#xb6;" horiz-adv-x="1182" d="M86 1196q0 156 111.5 252t296.5 96h579v-143h-112v-1401h-152v1401h-160v-1401h-151v848q-189 0 -300.5 95.5t-111.5 252.5z" />
<glyph unicode="&#xb7;" horiz-adv-x="592" d="M127 793q0 71 50.5 121.5t121.5 50.5t121.5 -50.5t50.5 -121.5t-50 -120.5t-122 -49.5q-71 0 -121.5 50t-50.5 120z" />
<glyph unicode="&#xb8;" horiz-adv-x="778" d="M180 -408l236 365l168 -125l-295 -324z" />
<glyph unicode="&#xb9;" horiz-adv-x="709" d="M102 1350l103 194h287v-901h-205v707h-185z" />
<glyph unicode="&#xba;" horiz-adv-x="694" d="M35 1255q0 132 90.5 221t224.5 89q131 0 220 -89.5t89 -220.5q0 -130 -88.5 -220.5t-220.5 -90.5t-223.5 90.5t-91.5 220.5zM229 1255q0 -60 34 -98.5t85 -38.5q53 0 85 37.5t32 99.5q0 60 -33.5 98t-83.5 38q-51 0 -85 -38t-34 -98z" />
<glyph unicode="&#xbb;" horiz-adv-x="1053" d="M72 109l243 395l-243 393l178 109l299 -502l-299 -504zM481 109l244 395l-244 393l178 109l299 -502l-299 -504z" />
<glyph unicode="&#xbc;" horiz-adv-x="1776" d="M102 1350l103 194h287v-901h-205v707h-185zM297 0l950 1544h150l-951 -1544h-149zM918 178v101l432 622h217v-569h119v-154h-119v-178h-205v178h-444zM1174 332h190v272z" />
<glyph unicode="&#xbd;" horiz-adv-x="1776" d="M82 1350l102 194h287v-901h-205v707h-184zM276 0l951 1544h149l-950 -1544h-150zM1040 0l342 410q65 76 93 127t28 92q0 53 -31 80.5t-90 27.5q-57 0 -88.5 -37.5t-31.5 -101.5h-195q0 150 84.5 237t230.5 87q148 0 237 -78t89 -201q0 -85 -45.5 -169.5t-175.5 -227.5 l-55 -62h276v-184h-668z" />
<glyph unicode="&#xbe;" horiz-adv-x="1776" d="M49 911v7h191v-3q0 -52 31.5 -80t90.5 -28q48 0 79.5 29t31.5 71q0 54 -30.5 81.5t-90.5 27.5v174q59 0 88 24t29 72q0 44 -27.5 69t-76.5 25q-57 0 -87 -20.5t-30 -56.5h-184q6 121 86.5 191.5t216.5 70.5q145 0 223 -66.5t78 -187.5q0 -81 -41 -135t-103 -64 q81 -16 122.5 -71.5t41.5 -145.5q0 -127 -87 -199.5t-243 -72.5q-138 0 -223.5 82t-85.5 206zM338 0l950 1544h150l-951 -1544h-149zM918 178v101l432 622h217v-569h119v-154h-119v-178h-205v178h-444zM1174 332h190v272z" />
<glyph unicode="&#xbf;" horiz-adv-x="997" d="M47 418q0 158 81.5 258.5t236.5 132.5v258h284v-444h-108q-97 0 -148 -55.5t-51 -159.5q0 -79 44 -127t116 -48q80 0 121 49.5t41 147.5h282q0 -218 -120.5 -340.5t-340.5 -122.5q-200 0 -319 123t-119 328zM336 1405q0 72 49.5 122t120.5 50t121.5 -51t50.5 -121 q0 -71 -50 -120.5t-122 -49.5q-71 0 -120.5 49t-49.5 121z" />
<glyph unicode="&#xc0;" horiz-adv-x="1384" d="M-10 0l524 1544h358l523 -1544h-336l-101 342h-530l-102 -342h-336zM498 588h389l-195 657zM414 1852l114 176l346 -262l-73 -117z" />
<glyph unicode="&#xc1;" horiz-adv-x="1384" d="M-10 0l524 1544h358l523 -1544h-336l-101 342h-530l-102 -342h-336zM498 588h389l-195 657zM510 1766l346 262l115 -176l-387 -203z" />
<glyph unicode="&#xc2;" horiz-adv-x="1384" d="M-10 0l524 1544h358l523 -1544h-336l-101 342h-530l-102 -342h-336zM498 588h389l-195 657zM367 1766l326 254l325 -254l-73 -117l-252 137l-252 -137z" />
<glyph unicode="&#xc3;" horiz-adv-x="1384" d="M-10 0l524 1544h358l523 -1544h-336l-101 342h-530l-102 -342h-336zM498 588h389l-195 657zM353 1758q34 96 88 146t125 50q31 0 65.5 -12t81.5 -41q5 -3 13 -9q67 -42 94 -42q30 0 50 17.5t50 76.5l113 -68q-31 -94 -88.5 -146t-129.5 -52q-32 0 -66.5 12.5t-78.5 40.5 q-5 3 -14 9q-65 42 -92 42q-29 0 -51 -21.5t-48 -72.5z" />
<glyph unicode="&#xc4;" horiz-adv-x="1384" d="M-10 0l524 1544h358l523 -1544h-336l-101 342h-530l-102 -342h-336zM498 588h389l-195 657zM375 1817q0 51 39.5 90t91.5 39q54 0 91.5 -37.5t37.5 -91.5q0 -57 -36.5 -94t-92.5 -37q-55 0 -93 38t-38 93zM750 1817q0 51 39.5 90t91.5 39q54 0 91.5 -37.5t37.5 -91.5 q0 -57 -36.5 -94t-92.5 -37q-55 0 -93 38t-38 93z" />
<glyph unicode="&#xc5;" horiz-adv-x="1384" d="M-10 0l524 1544h358l523 -1544h-336l-101 342h-530l-102 -342h-336zM498 588h389l-195 657zM471 1858q0 92 64.5 157.5t156.5 65.5t157.5 -65.5t65.5 -157.5q0 -93 -65 -158t-158 -65q-92 0 -156.5 64.5t-64.5 158.5zM606 1858q0 -37 24.5 -61.5t61.5 -24.5t62.5 24.5 t25.5 61.5t-25.5 62.5t-62.5 25.5q-36 0 -61 -25.5t-25 -62.5z" />
<glyph unicode="&#xc6;" horiz-adv-x="1886" d="M-10 0l524 1544h862l90 -266h-503l120 -360h504l90 -267h-503l129 -385h503l90 -266h-837l-101 342h-530l-102 -342h-336zM498 588h389l-195 657z" />
<glyph unicode="&#xc7;" horiz-adv-x="1231" d="M41 774q0 352 207.5 577.5t548.5 225.5q127 0 220 -24t173 -78v-334q-79 70 -174 107.5t-191 37.5q-214 0 -342.5 -140t-128.5 -372q0 -238 117.5 -377t323.5 -139q123 0 219 41t176 127v-342q-62 -46 -182 -81.5t-217 -35.5q-348 0 -549 218.5t-201 588.5zM559 -408 l236 365l168 -125l-295 -324z" />
<glyph unicode="&#xc8;" horiz-adv-x="999" d="M123 0v1544h774v-266h-467v-360h467v-267h-467v-385h467v-266h-774zM224 1852l114 176l346 -262l-73 -117z" />
<glyph unicode="&#xc9;" horiz-adv-x="999" d="M123 0v1544h774v-266h-467v-360h467v-267h-467v-385h467v-266h-774zM320 1766l346 262l115 -176l-387 -203z" />
<glyph unicode="&#xca;" horiz-adv-x="999" d="M123 0v1544h774v-266h-467v-360h467v-267h-467v-385h467v-266h-774zM176 1766l326 254l325 -254l-73 -117l-252 137l-252 -137z" />
<glyph unicode="&#xcb;" horiz-adv-x="999" d="M123 0v1544h774v-266h-467v-360h467v-267h-467v-385h467v-266h-774zM184 1817q0 51 39.5 90t91.5 39q54 0 91.5 -37.5t37.5 -91.5q0 -57 -36.5 -94t-92.5 -37q-55 0 -93 38t-38 93zM559 1817q0 51 39.5 90t91.5 39q54 0 91.5 -37.5t37.5 -91.5q0 -57 -36.5 -94t-92.5 -37 q-55 0 -93 38t-38 93z" />
<glyph unicode="&#xcc;" horiz-adv-x="520" d="M111 0v1544h301v-1544h-301zM-17 1852l114 176l346 -262l-73 -117z" />
<glyph unicode="&#xcd;" horiz-adv-x="520" d="M111 0v1544h301v-1544h-301zM79 1766l346 262l115 -176l-387 -203z" />
<glyph unicode="&#xce;" horiz-adv-x="520" d="M111 0v1544h301v-1544h-301zM-65 1766l326 254l325 -254l-73 -117l-252 137l-252 -137z" />
<glyph unicode="&#xcf;" horiz-adv-x="520" d="M111 0v1544h301v-1544h-301zM-57 1817q0 51 39.5 90t91.5 39q54 0 91.5 -37.5t37.5 -91.5q0 -57 -36.5 -94t-92.5 -37q-55 0 -93 38t-38 93zM318 1817q0 51 39.5 90t91.5 39q54 0 91.5 -37.5t37.5 -91.5q0 -57 -36.5 -94t-92.5 -37q-55 0 -93 38t-38 93z" />
<glyph unicode="&#xd0;" horiz-adv-x="1323" d="M0 629v229h102v686h308q412 0 632 -198.5t220 -575.5q0 -366 -218 -568t-610 -202h-332v629h-102zM403 266h74q222 0 346.5 132.5t124.5 373.5q0 239 -124 372.5t-347 133.5h-74v-420h252v-229h-252v-363z" />
<glyph unicode="&#xd1;" horiz-adv-x="1554" d="M123 0v1544h295l719 -1038v1038h295v-1544h-295l-719 1042v-1042h-295zM439 1758q34 96 88 146t125 50q31 0 65.5 -12t81.5 -41q5 -3 13 -9q67 -42 94 -42q30 0 50 17.5t50 76.5l113 -68q-31 -94 -88.5 -146t-129.5 -52q-32 0 -66.5 12.5t-78.5 40.5q-5 3 -14 9 q-65 42 -92 42q-29 0 -51 -21.5t-48 -72.5z" />
<glyph unicode="&#xd2;" horiz-adv-x="1602" d="M41 772q0 345 218.5 575t541.5 230t541.5 -230t218.5 -575t-218.5 -575t-541.5 -230t-541.5 230t-218.5 575zM352 772q0 -224 124.5 -366t324.5 -142q199 0 323.5 142t124.5 366t-124.5 366t-323.5 142q-200 0 -324.5 -142t-124.5 -366zM523 1852l114 176l346 -262 l-73 -117z" />
<glyph unicode="&#xd3;" horiz-adv-x="1602" d="M41 772q0 345 218.5 575t541.5 230t541.5 -230t218.5 -575t-218.5 -575t-541.5 -230t-541.5 230t-218.5 575zM352 772q0 -224 124.5 -366t324.5 -142q199 0 323.5 142t124.5 366t-124.5 366t-323.5 142q-200 0 -324.5 -142t-124.5 -366zM619 1766l346 262l115 -176 l-387 -203z" />
<glyph unicode="&#xd4;" horiz-adv-x="1602" d="M41 772q0 345 218.5 575t541.5 230t541.5 -230t218.5 -575t-218.5 -575t-541.5 -230t-541.5 230t-218.5 575zM352 772q0 -224 124.5 -366t324.5 -142q199 0 323.5 142t124.5 366t-124.5 366t-323.5 142q-200 0 -324.5 -142t-124.5 -366zM475 1766l326 254l325 -254 l-73 -117l-252 137l-252 -137z" />
<glyph unicode="&#xd5;" horiz-adv-x="1602" d="M41 772q0 345 218.5 575t541.5 230t541.5 -230t218.5 -575t-218.5 -575t-541.5 -230t-541.5 230t-218.5 575zM352 772q0 -224 124.5 -366t324.5 -142q199 0 323.5 142t124.5 366t-124.5 366t-323.5 142q-200 0 -324.5 -142t-124.5 -366zM461 1758q34 96 88 146t125 50 q31 0 65.5 -12t81.5 -41q5 -3 13 -9q67 -42 94 -42q30 0 50 17.5t50 76.5l113 -68q-31 -94 -88.5 -146t-129.5 -52q-32 0 -66.5 12.5t-78.5 40.5q-5 3 -14 9q-65 42 -92 42q-29 0 -51 -21.5t-48 -72.5z" />
<glyph unicode="&#xd6;" horiz-adv-x="1602" d="M41 772q0 345 218.5 575t541.5 230t541.5 -230t218.5 -575t-218.5 -575t-541.5 -230t-541.5 230t-218.5 575zM352 772q0 -224 124.5 -366t324.5 -142q199 0 323.5 142t124.5 366t-124.5 366t-323.5 142q-200 0 -324.5 -142t-124.5 -366zM483 1817q0 51 39.5 90t91.5 39 q54 0 91.5 -37.5t37.5 -91.5q0 -57 -36.5 -94t-92.5 -37q-55 0 -93 38t-38 93zM858 1817q0 51 39.5 90t91.5 39q54 0 91.5 -37.5t37.5 -91.5q0 -57 -36.5 -94t-92.5 -37q-55 0 -93 38t-38 93z" />
<glyph unicode="&#xd7;" d="M59 948l148 148l387 -385l369 368l145 -143l-371 -371l389 -387l-147 -147l-389 387l-369 -371l-145 146l370 370z" />
<glyph unicode="&#xd8;" horiz-adv-x="1602" d="M8 72l193 194q-78 105 -119 234.5t-41 271.5q0 345 218.5 575t541.5 230q142 0 270.5 -49t231.5 -142l188 191l104 -104l-194 -197q78 -105 119 -234t41 -270q0 -345 -218.5 -575t-541.5 -230q-141 0 -269.5 49t-230.5 142l-188 -191zM352 772q0 -77 17.5 -149t50.5 -134 l672 682q-60 54 -134 81.5t-157 27.5q-200 0 -324.5 -142t-124.5 -366zM510 371q57 -52 131 -79.5t160 -27.5q199 0 323.5 142t124.5 366q0 80 -16.5 151.5t-48.5 131.5z" />
<glyph unicode="&#xd9;" horiz-adv-x="1352" d="M113 600v944h311v-997q0 -149 64.5 -226t187.5 -77q128 0 190 75t62 228v997h311v-944q0 -307 -145.5 -470t-417.5 -163q-268 0 -415.5 167.5t-147.5 465.5zM398 1852l114 176l346 -262l-73 -117z" />
<glyph unicode="&#xda;" horiz-adv-x="1352" d="M113 600v944h311v-997q0 -149 64.5 -226t187.5 -77q128 0 190 75t62 228v997h311v-944q0 -307 -145.5 -470t-417.5 -163q-268 0 -415.5 167.5t-147.5 465.5zM494 1766l346 262l115 -176l-387 -203z" />
<glyph unicode="&#xdb;" horiz-adv-x="1352" d="M113 600v944h311v-997q0 -149 64.5 -226t187.5 -77q128 0 190 75t62 228v997h311v-944q0 -307 -145.5 -470t-417.5 -163q-268 0 -415.5 167.5t-147.5 465.5zM350 1766l326 254l325 -254l-73 -117l-252 137l-252 -137z" />
<glyph unicode="&#xdc;" horiz-adv-x="1352" d="M113 600v944h311v-997q0 -149 64.5 -226t187.5 -77q128 0 190 75t62 228v997h311v-944q0 -307 -145.5 -470t-417.5 -163q-268 0 -415.5 167.5t-147.5 465.5zM358 1817q0 51 39.5 90t91.5 39q54 0 91.5 -37.5t37.5 -91.5q0 -57 -36.5 -94t-92.5 -37q-55 0 -93 38t-38 93z M733 1817q0 51 39.5 90t91.5 39q54 0 91.5 -37.5t37.5 -91.5q0 -57 -36.5 -94t-92.5 -37q-55 0 -93 38t-38 93z" />
<glyph unicode="&#xdd;" horiz-adv-x="1202" d="M-10 1544h344l272 -583l264 583h342l-460 -860v-684h-301v684zM420 1766l346 262l115 -176l-387 -203z" />
<glyph unicode="&#xde;" horiz-adv-x="1081" d="M123 0v1544h301v-282h43q273 0 418 -122t145 -349q0 -216 -152 -345t-411 -129h-43v-317h-301zM424 563h51q129 0 186.5 53.5t57.5 174.5q0 110 -62 167.5t-182 57.5h-51v-453z" />
<glyph unicode="&#xdf;" horiz-adv-x="1149" d="M123 0v1307q0 196 105.5 302.5t297.5 106.5q211 0 337 -130t126 -339q0 -100 -40 -183t-118 -142q134 -53 207.5 -164t73.5 -262q0 -226 -148 -377.5t-374 -151.5q-22 0 -44 1.5t-44 5.5v253q25 -3 45 -4.5t41 -1.5q107 0 170 74.5t63 200.5q0 119 -66.5 196.5 t-166.5 77.5h-86v236q106 0 156.5 58.5t50.5 182.5q0 99 -44 157t-116 58q-70 0 -104.5 -44t-34.5 -132v-1286h-287z" />
<glyph unicode="&#xe0;" horiz-adv-x="1157" d="M37 502q0 235 127 385.5t334 150.5q95 0 166 -38.5t104 -108.5v115h287v-1006h-287v115q-44 -73 -112.5 -110.5t-157.5 -37.5q-207 0 -334 150t-127 385zM328 502q0 -120 62 -200.5t157 -80.5t158 81t63 200t-63.5 200.5t-157.5 81.5t-156.5 -81t-62.5 -201zM301 1313 l114 176l346 -262l-73 -117z" />
<glyph unicode="&#xe1;" horiz-adv-x="1157" d="M37 502q0 235 127 385.5t334 150.5q95 0 166 -38.5t104 -108.5v115h287v-1006h-287v115q-44 -73 -112.5 -110.5t-157.5 -37.5q-207 0 -334 150t-127 385zM328 502q0 -120 62 -200.5t157 -80.5t158 81t63 200t-63.5 200.5t-157.5 81.5t-156.5 -81t-62.5 -201zM397 1227 l346 262l115 -176l-387 -203z" />
<glyph unicode="&#xe2;" horiz-adv-x="1157" d="M37 502q0 235 127 385.5t334 150.5q95 0 166 -38.5t104 -108.5v115h287v-1006h-287v115q-44 -73 -112.5 -110.5t-157.5 -37.5q-207 0 -334 150t-127 385zM328 502q0 -120 62 -200.5t157 -80.5t158 81t63 200t-63.5 200.5t-157.5 81.5t-156.5 -81t-62.5 -201zM254 1227 l326 254l325 -254l-73 -117l-252 137l-252 -137z" />
<glyph unicode="&#xe3;" horiz-adv-x="1157" d="M37 502q0 235 127 385.5t334 150.5q95 0 166 -38.5t104 -108.5v115h287v-1006h-287v115q-44 -73 -112.5 -110.5t-157.5 -37.5q-207 0 -334 150t-127 385zM328 502q0 -120 62 -200.5t157 -80.5t158 81t63 200t-63.5 200.5t-157.5 81.5t-156.5 -81t-62.5 -201zM240 1219 q34 96 88 146t125 50q31 0 65.5 -12t81.5 -41q5 -3 13 -9q67 -42 94 -42q30 0 50 17.5t50 76.5l113 -68q-31 -94 -88.5 -146t-129.5 -52q-32 0 -66.5 12.5t-78.5 40.5q-5 3 -14 9q-65 42 -92 42q-29 0 -51 -21.5t-48 -72.5z" />
<glyph unicode="&#xe4;" horiz-adv-x="1157" d="M37 502q0 235 127 385.5t334 150.5q95 0 166 -38.5t104 -108.5v115h287v-1006h-287v115q-44 -73 -112.5 -110.5t-157.5 -37.5q-207 0 -334 150t-127 385zM328 502q0 -120 62 -200.5t157 -80.5t158 81t63 200t-63.5 200.5t-157.5 81.5t-156.5 -81t-62.5 -201zM262 1278 q0 51 39.5 90t91.5 39q54 0 91.5 -37.5t37.5 -91.5q0 -57 -36.5 -94t-92.5 -37q-55 0 -93 38t-38 93zM637 1278q0 51 39.5 90t91.5 39q54 0 91.5 -37.5t37.5 -91.5q0 -57 -36.5 -94t-92.5 -37q-55 0 -93 38t-38 93z" />
<glyph unicode="&#xe5;" horiz-adv-x="1157" d="M37 502q0 235 127 385.5t334 150.5q95 0 166 -38.5t104 -108.5v115h287v-1006h-287v115q-44 -73 -112.5 -110.5t-157.5 -37.5q-207 0 -334 150t-127 385zM328 502q0 -120 62 -200.5t157 -80.5t158 81t63 200t-63.5 200.5t-157.5 81.5t-156.5 -81t-62.5 -201zM358 1319 q0 92 64.5 157.5t156.5 65.5t157.5 -65.5t65.5 -157.5q0 -93 -65 -158t-158 -65q-92 0 -156.5 64.5t-64.5 158.5zM493 1319q0 -37 24.5 -61.5t61.5 -24.5t62.5 24.5t25.5 61.5t-25.5 62.5t-62.5 25.5q-36 0 -61 -25.5t-25 -62.5z" />
<glyph unicode="&#xe6;" horiz-adv-x="1622" d="M25 313q0 138 104 232t260 94q83 0 146.5 -16.5t132.5 -55.5v25q0 100 -69 156.5t-193 56.5q-80 0 -147 -23.5t-142 -76.5v256q51 38 131.5 57.5t187.5 19.5q128 0 222 -40t155 -119q56 78 137 118.5t183 40.5q211 0 337.5 -148t126.5 -386q0 -37 -0.5 -55t-3.5 -33h-645 q8 -96 63 -155.5t136 -59.5q62 0 106 31t74 96l229 -115q-62 -125 -165 -185.5t-252 -60.5q-115 0 -199.5 40t-138.5 120q-84 -82 -177 -121t-202 -39q-174 0 -285.5 98.5t-111.5 247.5zM307 330q0 -62 42 -95.5t118 -33.5q96 0 148.5 34.5t52.5 98.5q0 57 -49.5 93 t-133.5 36q-80 0 -129 -36.5t-49 -96.5zM948 592h365q-7 93 -57.5 153t-125.5 60t-124 -58t-58 -155z" />
<glyph unicode="&#xe7;" horiz-adv-x="862" d="M37 502q0 239 151.5 387.5t401.5 148.5q73 0 127.5 -14t113.5 -47v-287q-39 42 -101 68t-122 26q-121 0 -200.5 -80t-79.5 -200q0 -130 75.5 -206.5t204.5 -76.5q64 0 123.5 26t99.5 72v-286q-61 -37 -115 -51.5t-126 -14.5q-252 0 -402.5 146t-150.5 389zM350 -408 l236 365l168 -125l-295 -324z" />
<glyph unicode="&#xe8;" horiz-adv-x="1026" d="M25 504q0 226 141 380t348 154q215 0 351 -151t136 -383q0 -37 -0.5 -55t-3.5 -33h-690q21 -96 82 -155.5t139 -59.5q67 0 121.5 34t81.5 93l230 -115q-60 -119 -173 -182.5t-268 -63.5q-224 0 -359.5 147.5t-135.5 389.5zM307 592h410q-19 99 -73.5 156t-131.5 57 t-132 -58t-73 -155zM236 1313l114 176l346 -262l-73 -117z" />
<glyph unicode="&#xe9;" horiz-adv-x="1026" d="M25 504q0 226 141 380t348 154q215 0 351 -151t136 -383q0 -37 -0.5 -55t-3.5 -33h-690q21 -96 82 -155.5t139 -59.5q67 0 121.5 34t81.5 93l230 -115q-60 -119 -173 -182.5t-268 -63.5q-224 0 -359.5 147.5t-135.5 389.5zM307 592h410q-19 99 -73.5 156t-131.5 57 t-132 -58t-73 -155zM332 1227l346 262l115 -176l-387 -203z" />
<glyph unicode="&#xea;" horiz-adv-x="1026" d="M25 504q0 226 141 380t348 154q215 0 351 -151t136 -383q0 -37 -0.5 -55t-3.5 -33h-690q21 -96 82 -155.5t139 -59.5q67 0 121.5 34t81.5 93l230 -115q-60 -119 -173 -182.5t-268 -63.5q-224 0 -359.5 147.5t-135.5 389.5zM307 592h410q-19 99 -73.5 156t-131.5 57 t-132 -58t-73 -155zM188 1227l326 254l325 -254l-73 -117l-252 137l-252 -137z" />
<glyph unicode="&#xeb;" horiz-adv-x="1026" d="M25 504q0 226 141 380t348 154q215 0 351 -151t136 -383q0 -37 -0.5 -55t-3.5 -33h-690q21 -96 82 -155.5t139 -59.5q67 0 121.5 34t81.5 93l230 -115q-60 -119 -173 -182.5t-268 -63.5q-224 0 -359.5 147.5t-135.5 389.5zM307 592h410q-19 99 -73.5 156t-131.5 57 t-132 -58t-73 -155zM196 1278q0 51 39.5 90t91.5 39q54 0 91.5 -37.5t37.5 -91.5q0 -57 -36.5 -94t-92.5 -37q-55 0 -93 38t-38 93zM571 1278q0 51 39.5 90t91.5 39q54 0 91.5 -37.5t37.5 -91.5q0 -57 -36.5 -94t-92.5 -37q-55 0 -93 38t-38 93z" />
<glyph unicode="&#xec;" horiz-adv-x="518" d="M117 0v1006h286v-1006h-286zM-17 1313l114 176l346 -262l-73 -117z" />
<glyph unicode="&#xed;" horiz-adv-x="518" d="M117 0v1006h286v-1006h-286zM79 1227l346 262l115 -176l-387 -203z" />
<glyph unicode="&#xee;" horiz-adv-x="518" d="M117 0v1006h286v-1006h-286zM-65 1227l326 254l325 -254l-73 -117l-252 137l-252 -137z" />
<glyph unicode="&#xef;" horiz-adv-x="518" d="M117 0v1006h286v-1006h-286zM-57 1278q0 51 39.5 90t91.5 39q54 0 91.5 -37.5t37.5 -91.5q0 -57 -36.5 -94t-92.5 -37q-55 0 -93 38t-38 93zM318 1278q0 51 39.5 90t91.5 39q54 0 91.5 -37.5t37.5 -91.5q0 -57 -36.5 -94t-92.5 -37q-55 0 -93 38t-38 93z" />
<glyph unicode="&#xf0;" horiz-adv-x="1122" d="M37 504q0 234 146 384t380 150q48 0 82.5 -8.5t73.5 -30.5q-25 68 -80.5 143.5t-134.5 149.5l-348 -170l-64 129l291 142q-53 39 -107.5 71t-107.5 56l117 196q101 -37 192 -90.5t172 -122.5l273 131l61 -129l-223 -108q157 -172 241 -392t84 -460q0 -263 -138.5 -420.5 t-383.5 -157.5q-226 0 -376 153.5t-150 383.5zM328 504q0 -117 68 -200t165 -83t165.5 83t68.5 200q0 116 -68.5 198t-165.5 82t-165 -82t-68 -198z" />
<glyph unicode="&#xf1;" horiz-adv-x="1106" d="M102 0v1006h287v-117q41 73 119.5 111t185.5 38q155 0 234.5 -103.5t79.5 -305.5v-629h-285v592q0 114 -34.5 165.5t-110.5 51.5q-83 0 -136 -78t-53 -215v-516h-287zM213 1219q34 96 88 146t125 50q31 0 65.5 -12t81.5 -41q5 -3 13 -9q67 -42 94 -42q30 0 50 17.5 t50 76.5l113 -68q-31 -94 -88.5 -146t-129.5 -52q-32 0 -66.5 12.5t-78.5 40.5q-5 3 -14 9q-65 42 -92 42q-29 0 -51 -21.5t-48 -72.5z" />
<glyph unicode="&#xf2;" horiz-adv-x="1122" d="M37 504q0 231 149 382.5t377 151.5q225 0 373.5 -153.5t148.5 -380.5q0 -228 -148.5 -382.5t-373.5 -154.5q-226 0 -376 154t-150 383zM328 504q0 -125 65.5 -204t167.5 -79q107 0 170.5 78t63.5 205q0 120 -67.5 200t-166.5 80q-103 0 -168 -78.5t-65 -201.5zM283 1313 l114 176l346 -262l-73 -117z" />
<glyph unicode="&#xf3;" horiz-adv-x="1122" d="M37 504q0 231 149 382.5t377 151.5q225 0 373.5 -153.5t148.5 -380.5q0 -228 -148.5 -382.5t-373.5 -154.5q-226 0 -376 154t-150 383zM328 504q0 -125 65.5 -204t167.5 -79q107 0 170.5 78t63.5 205q0 120 -67.5 200t-166.5 80q-103 0 -168 -78.5t-65 -201.5zM379 1227 l346 262l115 -176l-387 -203z" />
<glyph unicode="&#xf4;" horiz-adv-x="1122" d="M37 504q0 231 149 382.5t377 151.5q225 0 373.5 -153.5t148.5 -380.5q0 -228 -148.5 -382.5t-373.5 -154.5q-226 0 -376 154t-150 383zM328 504q0 -125 65.5 -204t167.5 -79q107 0 170.5 78t63.5 205q0 120 -67.5 200t-166.5 80q-103 0 -168 -78.5t-65 -201.5zM236 1227 l326 254l325 -254l-73 -117l-252 137l-252 -137z" />
<glyph unicode="&#xf5;" horiz-adv-x="1122" d="M37 504q0 231 149 382.5t377 151.5q225 0 373.5 -153.5t148.5 -380.5q0 -228 -148.5 -382.5t-373.5 -154.5q-226 0 -376 154t-150 383zM328 504q0 -125 65.5 -204t167.5 -79q107 0 170.5 78t63.5 205q0 120 -67.5 200t-166.5 80q-103 0 -168 -78.5t-65 -201.5zM222 1219 q34 96 88 146t125 50q31 0 65.5 -12t81.5 -41q5 -3 13 -9q67 -42 94 -42q30 0 50 17.5t50 76.5l113 -68q-31 -94 -88.5 -146t-129.5 -52q-32 0 -66.5 12.5t-78.5 40.5q-5 3 -14 9q-65 42 -92 42q-29 0 -51 -21.5t-48 -72.5z" />
<glyph unicode="&#xf6;" horiz-adv-x="1122" d="M37 504q0 231 149 382.5t377 151.5q225 0 373.5 -153.5t148.5 -380.5q0 -228 -148.5 -382.5t-373.5 -154.5q-226 0 -376 154t-150 383zM328 504q0 -125 65.5 -204t167.5 -79q107 0 170.5 78t63.5 205q0 120 -67.5 200t-166.5 80q-103 0 -168 -78.5t-65 -201.5zM244 1278 q0 51 39.5 90t91.5 39q54 0 91.5 -37.5t37.5 -91.5q0 -57 -36.5 -94t-92.5 -37q-55 0 -93 38t-38 93zM619 1278q0 51 39.5 90t91.5 39q54 0 91.5 -37.5t37.5 -91.5q0 -57 -36.5 -94t-92.5 -37q-55 0 -93 38t-38 93z" />
<glyph unicode="&#xf7;" d="M55 461v205h1075v-205h-1075zM440 176q0 63 44.5 107.5t107.5 44.5q62 0 106.5 -45t44.5 -107q0 -61 -44.5 -105t-106.5 -44q-63 0 -107.5 43t-44.5 106zM440 950q0 64 44.5 108t107.5 44q62 0 106.5 -44.5t44.5 -107.5q0 -62 -44 -106.5t-107 -44.5t-107.5 44t-44.5 107 z" />
<glyph unicode="&#xf8;" horiz-adv-x="1155" d="M37 504q0 231 150.5 382.5t392.5 151.5q97 0 182 -27t156 -81l108 108l86 -86l-106 -108q54 -70 83 -157.5t29 -182.5q0 -234 -151 -385.5t-387 -151.5q-100 0 -186.5 27.5t-155.5 81.5l-109 -109l-86 86l107 109q-55 70 -84 158t-29 184zM328 504q0 -37 6.5 -71.5 t19.5 -65.5l371 370q-32 24 -69 35.5t-78 11.5q-114 0 -182 -77t-68 -203zM430 268q31 -23 68 -35t80 -12q117 0 183 75.5t66 207.5q0 35 -6.5 69.5t-19.5 65.5z" />
<glyph unicode="&#xf9;" horiz-adv-x="1096" d="M98 451v555h287v-586q0 -102 40 -150.5t124 -48.5q79 0 120.5 51t41.5 148v586h286v-555q0 -251 -108 -367.5t-340 -116.5q-242 0 -346.5 113t-104.5 371zM271 1313l114 176l346 -262l-73 -117z" />
<glyph unicode="&#xfa;" horiz-adv-x="1096" d="M98 451v555h287v-586q0 -102 40 -150.5t124 -48.5q79 0 120.5 51t41.5 148v586h286v-555q0 -251 -108 -367.5t-340 -116.5q-242 0 -346.5 113t-104.5 371zM367 1227l346 262l115 -176l-387 -203z" />
<glyph unicode="&#xfb;" horiz-adv-x="1096" d="M98 451v555h287v-586q0 -102 40 -150.5t124 -48.5q79 0 120.5 51t41.5 148v586h286v-555q0 -251 -108 -367.5t-340 -116.5q-242 0 -346.5 113t-104.5 371zM223 1227l326 254l325 -254l-73 -117l-252 137l-252 -137z" />
<glyph unicode="&#xfc;" horiz-adv-x="1096" d="M98 451v555h287v-586q0 -102 40 -150.5t124 -48.5q79 0 120.5 51t41.5 148v586h286v-555q0 -251 -108 -367.5t-340 -116.5q-242 0 -346.5 113t-104.5 371zM231 1278q0 51 39.5 90t91.5 39q54 0 91.5 -37.5t37.5 -91.5q0 -57 -36.5 -94t-92.5 -37q-55 0 -93 38t-38 93z M606 1278q0 51 39.5 90t91.5 39q54 0 91.5 -37.5t37.5 -91.5q0 -57 -36.5 -94t-92.5 -37q-55 0 -93 38t-38 93z" />
<glyph unicode="&#xfd;" horiz-adv-x="1065" d="M14 1006h318l209 -648l207 648h317l-563 -1538h-318l211 557zM365 1227l346 262l115 -176l-387 -203z" />
<glyph unicode="&#xfe;" horiz-adv-x="1157" d="M102 -532v2222h287v-799q44 72 112.5 109.5t157.5 37.5q207 0 334 -149.5t127 -384.5t-127 -386t-334 -151q-95 0 -166 39t-104 109v-647h-287zM389 504q0 -120 63.5 -201.5t157.5 -81.5q95 0 159.5 82t64.5 201q0 118 -64 199t-160 81q-95 0 -158 -80.5t-63 -199.5z" />
<glyph unicode="&#xff;" horiz-adv-x="1065" d="M14 1006h318l209 -648l207 648h317l-563 -1538h-318l211 557zM229 1278q0 51 39.5 90t91.5 39q54 0 91.5 -37.5t37.5 -91.5q0 -57 -36.5 -94t-92.5 -37q-55 0 -93 38t-38 93zM604 1278q0 51 39.5 90t91.5 39q54 0 91.5 -37.5t37.5 -91.5q0 -57 -36.5 -94t-92.5 -37 q-55 0 -93 38t-38 93z" />
<glyph unicode="&#x131;" horiz-adv-x="518" d="M117 0v1006h286v-1006h-286z" />
<glyph unicode="&#x152;" horiz-adv-x="2128" d="M41 772q0 345 218.5 575t541.5 230q139 0 256.5 -51t191.5 -144v162h776v-266h-469v-360h469v-267h-469v-385h469v-266h-776v162q-64 -86 -188.5 -140.5t-259.5 -54.5q-323 0 -541.5 230t-218.5 575zM352 772q0 -224 124.5 -366t324.5 -142q199 0 323.5 142t124.5 366 t-124.5 366t-323.5 142q-200 0 -324.5 -142t-124.5 -366z" />
<glyph unicode="&#x153;" horiz-adv-x="1788" d="M37 504q0 231 149 382.5t377 151.5q125 0 217 -51t148 -151q55 98 144 150t204 52q215 0 351 -151t136 -383q0 -37 -1 -55t-3 -33h-690q21 -96 82 -155.5t139 -59.5q67 0 121.5 34t81.5 93l229 -115q-59 -119 -172 -182.5t-268 -63.5q-124 0 -214.5 50t-143.5 147 q-57 -97 -148.5 -147t-212.5 -50q-226 0 -376 154t-150 383zM328 504q0 -125 65.5 -204t167.5 -79q107 0 170.5 78t63.5 205q0 120 -67.5 200t-166.5 80q-103 0 -168 -78.5t-65 -201.5zM1069 592h410q-19 99 -73.5 156t-131.5 57t-132 -58t-73 -155z" />
<glyph unicode="&#x178;" horiz-adv-x="1202" d="M-10 1544h344l272 -583l264 583h342l-460 -860v-684h-301v684zM285 1817q0 51 39.5 90t91.5 39q54 0 91.5 -37.5t37.5 -91.5q0 -57 -36.5 -94t-92.5 -37q-55 0 -93 38t-38 93zM660 1817q0 51 39.5 90t91.5 39q54 0 91.5 -37.5t37.5 -91.5q0 -57 -36.5 -94t-92.5 -37 q-55 0 -93 38t-38 93z" />
<glyph unicode="&#x2c6;" horiz-adv-x="819" d="M84 1227l326 254l325 -254l-73 -117l-252 137l-252 -137z" />
<glyph unicode="&#x2c7;" horiz-adv-x="819" d="M84 1364l74 117l252 -138l252 138l73 -117l-325 -254z" />
<glyph unicode="&#x2da;" horiz-adv-x="778" d="M168 1319q0 92 64.5 157.5t156.5 65.5t157.5 -65.5t65.5 -157.5q0 -93 -65 -158t-158 -65q-92 0 -156.5 64.5t-64.5 158.5zM303 1319q0 -37 24.5 -61.5t61.5 -24.5t62.5 24.5t25.5 61.5t-25.5 62.5t-62.5 25.5q-36 0 -61 -25.5t-25 -62.5z" />
<glyph unicode="&#x2dc;" horiz-adv-x="819" d="M70 1219q34 96 88 146t125 50q31 0 65.5 -12t81.5 -41q5 -3 13 -9q67 -42 94 -42q30 0 50 17.5t50 76.5l113 -68q-31 -94 -88.5 -146t-129.5 -52q-32 0 -66.5 12.5t-78.5 40.5q-5 3 -14 9q-65 42 -92 42q-29 0 -51 -21.5t-48 -72.5z" />
<glyph unicode="&#x2000;" horiz-adv-x="1040" />
<glyph unicode="&#x2001;" horiz-adv-x="2081" />
<glyph unicode="&#x2002;" horiz-adv-x="1040" />
<glyph unicode="&#x2003;" horiz-adv-x="2081" />
<glyph unicode="&#x2004;" horiz-adv-x="693" />
<glyph unicode="&#x2005;" horiz-adv-x="520" />
<glyph unicode="&#x2006;" horiz-adv-x="346" />
<glyph unicode="&#x2008;" horiz-adv-x="260" />
<glyph unicode="&#x2009;" horiz-adv-x="416" />
<glyph unicode="&#x200a;" horiz-adv-x="115" />
<glyph unicode="&#x2010;" horiz-adv-x="676" d="M59 383v266h559v-266h-559z" />
<glyph unicode="&#x2011;" horiz-adv-x="676" d="M59 383v266h559v-266h-559z" />
<glyph unicode="&#x2012;" horiz-adv-x="676" d="M59 383v266h559v-266h-559z" />
<glyph unicode="&#x2013;" horiz-adv-x="1024" d="M0 414v204h1024v-204h-1024z" />
<glyph unicode="&#x2014;" horiz-adv-x="2048" d="M205 414v204h1638v-204h-1638z" />
<glyph unicode="&#x2018;" horiz-adv-x="606" d="M70 909l288 635h191l-172 -635h-307z" />
<glyph unicode="&#x2019;" horiz-adv-x="606" d="M57 909l172 635h308l-289 -635h-191z" />
<glyph unicode="&#x201a;" horiz-adv-x="606" d="M16 -338l172 635h308l-289 -635h-191z" />
<glyph unicode="&#x201c;" horiz-adv-x="999" d="M49 909l289 635h190l-172 -635h-307zM483 909l289 635h191l-172 -635h-308z" />
<glyph unicode="&#x201d;" horiz-adv-x="999" d="M37 909l172 635h307l-289 -635h-190zM471 909l172 635h307l-288 -635h-191z" />
<glyph unicode="&#x201e;" horiz-adv-x="999" d="M-4 -338l172 635h307l-289 -635h-190zM430 -338l172 635h307l-288 -635h-191z" />
<glyph unicode="&#x2022;" horiz-adv-x="1182" d="M287 807q0 127 88.5 216t216.5 89q126 0 215.5 -89t89.5 -216t-89 -216t-216 -89t-216 89t-89 216z" />
<glyph unicode="&#x2026;" horiz-adv-x="2048" d="M170 137q0 72 50.5 122t121.5 50t121.5 -50t50.5 -122q0 -71 -50 -120.5t-122 -49.5q-71 0 -121.5 50t-50.5 120zM852 137q0 72 50.5 122t121.5 50t121.5 -50t50.5 -122q0 -71 -50 -120.5t-122 -49.5q-71 0 -121.5 50t-50.5 120zM1534 137q0 72 50.5 122t121.5 50 t121.5 -50t50.5 -122q0 -71 -50 -120.5t-122 -49.5q-71 0 -121.5 50t-50.5 120z" />
<glyph unicode="&#x202f;" horiz-adv-x="416" />
<glyph unicode="&#x2039;" horiz-adv-x="643" d="M94 504l299 502l178 -109l-243 -393l243 -395l-178 -109z" />
<glyph unicode="&#x203a;" horiz-adv-x="643" d="M72 109l243 395l-243 393l178 109l299 -502l-299 -504z" />
<glyph unicode="&#x205f;" horiz-adv-x="520" />
<glyph unicode="&#x2122;" horiz-adv-x="2048" d="M41 1350v194h741v-194h-258v-656h-225v656h-258zM883 694v850h309l192 -461l189 461h309v-850h-215v580l-235 -580h-95l-239 580v-580h-215z" />
<glyph unicode="&#xe000;" horiz-adv-x="1004" d="M0 1005h1005v-1005h-1005v1005z" />
<glyph unicode="&#xfb01;" horiz-adv-x="1114" d="M25 770v236h127v301q0 205 90 307t272 102q24 0 53.5 -3t53.5 -9v-252q-15 6 -28.5 8t-35.5 2q-64 0 -91.5 -41.5t-27.5 -134.5v-280h183v-236h-183v-770h-286v770h-127zM690 1411q0 69 48.5 117.5t117.5 48.5t117.5 -48.5t48.5 -117.5t-48.5 -117.5t-117.5 -48.5 t-117.5 48.5t-48.5 117.5zM713 0v1006h286v-1006h-286z" />
<glyph unicode="&#xfb02;" horiz-adv-x="1112" d="M25 770v236h127v301q0 205 90 307t272 102q24 0 53.5 -3t53.5 -9v-252q-15 6 -28.5 8t-35.5 2q-64 0 -91.5 -41.5t-27.5 -134.5v-280h183v-236h-183v-770h-286v770h-127zM725 0v1690h287v-1690h-287z" />
<glyph unicode="&#xfb03;" horiz-adv-x="1760" d="M1336 1411q0 69 48.5 117.5t117.5 48.5t117.5 -48.5t48.5 -117.5t-48.5 -117.5t-117.5 -48.5t-117.5 48.5t-48.5 117.5zM1359 0v1006h286v-1006h-286zM646 770v236h127v301q0 205 90 307t272 102q24 0 53.5 -3t53.5 -9v-252q-15 6 -28.5 8t-35.5 2q-64 0 -91.5 -41.5 t-27.5 -134.5v-280h183v-236h-183v-770h-286v770h-127zM25 770v236h127v301q0 205 90 307t272 102q24 0 53.5 -3t53.5 -9v-252q-15 6 -28.5 8t-35.5 2q-64 0 -91.5 -41.5t-27.5 -134.5v-280h183v-236h-183v-770h-286v770h-127z" />
<glyph unicode="&#xfb04;" horiz-adv-x="1731" d="M1344 0v1690h287v-1690h-287zM646 770v236h127v301q0 205 90 307t272 102q24 0 53.5 -3t53.5 -9v-252q-15 6 -28.5 8t-35.5 2q-64 0 -91.5 -41.5t-27.5 -134.5v-280h183v-236h-183v-770h-286v770h-127zM25 770v236h127v301q0 205 90 307t272 102q24 0 53.5 -3t53.5 -9 v-252q-15 6 -28.5 8t-35.5 2q-64 0 -91.5 -41.5t-27.5 -134.5v-280h183v-236h-183v-770h-286v770h-127z" />
</font>
</defs>
</svg>
